<svg width="437" height="437" viewBox="0 0 437 437" fill="none" xmlns="http://www.w3.org/2000/svg">
<rect width="437" height="437" rx="218.5" fill="#FFEC3D"/>
<path d="M191.532 288.752L135.866 302.199C118.558 275.94 103.404 235.326 99.9267 204.634C98.2932 190.22 98.4996 175.407 103.169 161.588C106.632 151.347 113.415 140.578 122.414 135.07C134.908 127.423 151.139 128.898 161.594 136.341C172.049 143.782 178.259 155.307 182.645 166.903C197.337 205.76 181.247 237.836 191.532 288.752Z" fill="#0161D5"/>
<path d="M191.532 377.606C170.954 383.345 153.177 371.551 147.845 353.164C142.516 334.778 143.499 314.562 143.499 314.562L194.111 302.197C194.111 302.197 204.787 317.358 209.624 335.099C214.463 352.841 212.097 371.871 191.532 377.606Z" fill="#0161D5"/>
<path d="M246.957 217.751L302.622 231.199C319.931 204.94 335.084 164.326 338.562 133.633C340.195 119.22 339.989 104.406 335.319 90.5879C331.856 80.3466 325.073 69.5786 316.074 64.0694C303.58 56.4225 287.349 57.8979 276.895 65.3411C266.439 72.7818 260.229 84.3072 255.844 95.9026C241.151 134.759 257.242 166.835 246.957 217.751Z" fill="#0161D5"/>
<path d="M246.956 306.607C267.534 312.347 285.311 300.553 290.643 282.166C295.972 263.78 294.989 243.564 294.989 243.564L244.377 231.199C244.377 231.199 233.701 246.36 228.864 264.101C224.025 281.844 226.391 300.873 246.956 306.607Z" fill="#0161D5"/>
</svg>
